<svg width="1177" height="1330" xmlns="http://www.w3.org/2000/svg" xmlns:xlink="http://www.w3.org/1999/xlink" xml:space="preserve" overflow="hidden"><defs><clipPath id="clip0"><rect x="1711" y="309" width="1177" height="1330"/></clipPath><clipPath id="clip1"><rect x="1923" y="309" width="331" height="331"/></clipPath><clipPath id="clip2"><rect x="1923" y="309" width="331" height="331"/></clipPath><clipPath id="clip3"><rect x="1923" y="309" width="331" height="331"/></clipPath><clipPath id="clip4"><rect x="1710" y="475" width="1178" height="988"/></clipPath><clipPath id="clip5"><rect x="1710" y="475" width="1178" height="988"/></clipPath><clipPath id="clip6"><rect x="1710" y="475" width="1178" height="988"/></clipPath><clipPath id="clip7"><rect x="2088" y="347" width="331" height="331"/></clipPath><clipPath id="clip8"><rect x="2088" y="347" width="331" height="331"/></clipPath><clipPath id="clip9"><rect x="2088" y="347" width="331" height="331"/></clipPath></defs><g clip-path="url(#clip0)" transform="translate(-1711 -309)"><g clip-path="url(#clip1)"><g clip-path="url(#clip2)"><g clip-path="url(#clip3)"><path d="M2107.05 408.688C2078.57 408.688 2055.48 431.773 2055.48 460.25 2055.48 461.384 2055.48 462.484 2055.48 463.688 2080.99 451.275 2111.72 461.888 2124.14 487.391 2127.08 493.44 2128.81 500.01 2129.22 506.725 2154.89 494.391 2165.7 463.585 2153.36 437.917 2144.8 420.103 2126.81 408.749 2107.05 408.688ZM2141.42 456.813C2139.52 456.813 2137.98 455.274 2137.98 453.375 2137.98 440.086 2127.21 429.313 2113.92 429.313 2112.02 429.313 2110.48 427.774 2110.48 425.875 2110.48 423.977 2112.02 422.438 2113.92 422.438 2131.01 422.438 2144.86 436.289 2144.86 453.375 2144.86 455.274 2143.32 456.813 2141.42 456.813Z" fill="#D9D9D9"/><path d="M2077.83 465.406C2053.15 465.406 2033.14 485.414 2033.14 510.094 2033.14 534.774 2053.15 554.781 2077.83 554.781 2102.51 554.781 2122.52 534.774 2122.52 510.094 2122.52 485.414 2102.51 465.406 2077.83 465.406ZM2105.33 506.656C2103.43 506.656 2101.89 505.117 2101.89 503.219 2101.89 493.726 2094.2 486.031 2084.7 486.031 2082.8 486.031 2081.27 484.492 2081.27 482.594 2081.27 480.695 2082.8 479.156 2084.7 479.156 2097.99 479.156 2108.77 489.929 2108.77 503.219 2108.77 505.117 2107.23 506.656 2105.33 506.656Z" fill="#D9D9D9"/><path d="M2009.08 410.406C1991.99 410.406 1978.14 424.257 1978.14 441.344 1978.14 458.43 1991.99 472.281 2009.08 472.281 2026.16 472.281 2040.02 458.43 2040.02 441.344 2040.02 424.257 2026.16 410.406 2009.08 410.406ZM2024.55 439.625C2022.65 439.625 2021.11 438.086 2021.11 436.188 2021.11 432.39 2018.03 429.313 2014.23 429.313 2012.34 429.313 2010.8 427.774 2010.8 425.875 2010.8 423.977 2012.34 422.438 2014.23 422.438 2021.83 422.438 2027.98 428.594 2027.98 436.188 2027.98 438.086 2026.45 439.625 2024.55 439.625Z" fill="#D9D9D9"/><path d="M2177.52 541.031C2158.53 541.031 2143.14 556.421 2143.14 575.406 2143.14 594.391 2158.53 609.781 2177.52 609.781 2196.5 609.781 2211.89 594.391 2211.89 575.406 2211.89 556.421 2196.5 541.031 2177.52 541.031ZM2194.7 574.272C2192.49 574.253 2190.7 572.463 2190.68 570.25 2190.68 565.827 2187.1 562.241 2182.67 562.241 2180.45 562.241 2178.65 560.44 2178.65 558.219 2178.65 555.997 2180.45 554.197 2182.67 554.197 2191.53 554.216 2198.71 561.392 2198.73 570.25 2198.71 572.463 2196.92 574.253 2194.7 574.272Z" fill="#D9D9D9"/><path d="M2195.46 386.344C2195.46 400.051 2184.35 411.163 2170.64 411.163 2156.93 411.163 2145.82 400.051 2145.82 386.344 2145.82 372.637 2156.93 361.525 2170.64 361.525 2184.35 361.525 2195.46 372.637 2195.46 386.344Z" fill="#D9D9D9"/><path d="M2022.83 565.094C2022.83 580.282 2010.52 592.594 1995.33 592.594 1980.14 592.594 1967.83 580.282 1967.83 565.094 1967.83 549.906 1980.14 537.594 1995.33 537.594 2010.52 537.594 2022.83 549.906 2022.83 565.094Z" fill="#D9D9D9"/><path d="M2063.12 358.844C2063.12 370.652 2053.54 380.225 2041.73 380.225 2029.93 380.225 2020.35 370.652 2020.35 358.844 2020.35 347.035 2029.93 337.463 2041.73 337.463 2053.54 337.463 2063.12 347.035 2063.12 358.844Z" fill="#D9D9D9"/><path d="M1993.61 376.031C1993.61 381.727 1988.99 386.344 1983.3 386.344 1977.6 386.344 1972.98 381.727 1972.98 376.031 1972.98 370.336 1977.6 365.719 1983.3 365.719 1988.99 365.719 1993.61 370.336 1993.61 376.031Z" fill="#D9D9D9"/><path d="M2199.86 510.094C2199.86 515.789 2195.24 520.406 2189.55 520.406 2183.85 520.406 2179.23 515.789 2179.23 510.094 2179.23 504.398 2183.85 499.781 2189.55 499.781 2195.24 499.781 2199.86 504.398 2199.86 510.094Z" fill="#D9D9D9"/><path d="M2062.36 585.719C2062.36 591.414 2057.74 596.031 2052.05 596.031 2046.35 596.031 2041.73 591.414 2041.73 585.719 2041.73 580.023 2046.35 575.406 2052.05 575.406 2057.74 575.406 2062.36 580.023 2062.36 585.719Z" fill="#D9D9D9"/></g></g></g><g clip-path="url(#clip4)"><g clip-path="url(#clip5)"><g clip-path="url(#clip6)"><path d="M720.417 761.583 617.5 761.583 617.5 370.5 720.417 370.5 720.417 761.583ZM535.167 741C535.167 752.321 525.904 761.583 514.583 761.583 503.262 761.583 494 752.321 494 741L494 391.083C494 379.762 503.262 370.5 514.583 370.5 525.904 370.5 535.167 379.762 535.167 391.083L535.167 741ZM432.25 741C432.25 752.321 422.987 761.583 411.667 761.583 400.346 761.583 391.083 752.321 391.083 741L391.083 391.083C391.083 379.762 400.346 370.5 411.667 370.5 422.987 370.5 432.25 379.762 432.25 391.083L432.25 741ZM329.333 741C329.333 752.321 320.071 761.583 308.75 761.583 297.429 761.583 288.167 752.321 288.167 741L288.167 391.083C288.167 379.762 297.429 370.5 308.75 370.5 320.071 370.5 329.333 379.762 329.333 391.083L329.333 741ZM741 308.75 617.5 308.75 617.5 267.583 205.833 267.583 205.833 864.5C205.833 887.142 224.358 905.667 247 905.667L576.333 905.667C598.975 905.667 617.5 887.142 617.5 864.5L617.5 823.333 741 823.333C763.642 823.333 782.167 804.808 782.167 782.167L782.167 349.917C782.167 327.275 763.642 308.75 741 308.75Z" fill="#16A3E5" transform="matrix(1.1913 0 0 1 1711 475)"/><path d="M545.458 154.375C526.933 154.375 510.467 161.579 498.117 172.9 482.679 161.579 463.125 154.375 442.542 154.375 442.542 154.375 442.542 154.375 441.512 154.375 436.367 114.237 401.375 82.3333 360.208 82.3333 319.042 82.3333 284.05 114.237 278.904 154.375 278.904 154.375 278.904 154.375 277.875 154.375 237.737 154.375 205.833 186.279 205.833 226.417L617.5 226.417C617.5 186.279 585.596 154.375 545.458 154.375Z" fill="#16A3E5" transform="matrix(1.1913 0 0 1 1711 475)"/></g></g></g><path d="M2361.9 627.5C2339.76 627.5 2320.08 635.451 2305.32 647.943 2286.87 635.451 2263.5 627.5 2238.9 627.5 2238.9 627.5 2238.9 627.5 2237.67 627.5 2231.52 583.208 2189.7 548 2140.5 548 2091.3 548 2049.48 583.208 2043.33 627.5 2043.33 627.5 2043.33 627.5 2042.1 627.5 1994.13 627.5 1956 662.708 1956 707L2448 707C2448 662.708 2409.87 627.5 2361.9 627.5Z" fill="#FC710E" fill-rule="evenodd"/><text fill="#FC710E" font-family="Bahnschrift SemiBold Condensed,Bahnschrift SemiBold Condensed_MSFontService,sans-serif" font-weight="600" font-stretch="condensed" font-size="147" transform="matrix(1 0 0 1 1930.6 1520)">FIZZ  <tspan fill="#000000" font-size="147" x="247.5" y="0">BUZZ</tspan><tspan fill="#8DC4E7" font-family="Calibri,Calibri_MSFontService,sans-serif" font-weight="400" font-stretch="normal" font-size="55" x="-83.6127" y="66">WHEN IT COUNTS YOU FIZZ BUZZ</tspan></text><g clip-path="url(#clip7)"><g clip-path="url(#clip8)"><g clip-path="url(#clip9)"><path d="M2272.05 447.687C2243.57 447.687 2220.48 470.773 2220.48 499.25 2220.48 500.384 2220.48 501.484 2220.48 502.687 2245.99 490.275 2276.72 500.888 2289.14 526.391 2292.08 532.44 2293.81 539.009 2294.22 545.725 2319.89 533.391 2330.7 502.585 2318.36 476.917 2309.8 459.103 2291.81 447.749 2272.05 447.687ZM2306.42 495.812C2304.52 495.812 2302.98 494.273 2302.98 492.375 2302.98 479.086 2292.21 468.312 2278.92 468.312 2277.02 468.312 2275.48 466.773 2275.48 464.875 2275.48 462.976 2277.02 461.437 2278.92 461.437 2296.01 461.437 2309.86 475.288 2309.86 492.375 2309.86 494.273 2308.32 495.812 2306.42 495.812Z" fill="#8DC4E7"/><path d="M2242.83 504.406C2218.15 504.406 2198.14 524.413 2198.14 549.094 2198.14 573.774 2218.15 593.781 2242.83 593.781 2267.51 593.781 2287.52 573.774 2287.52 549.094 2287.52 524.413 2267.51 504.406 2242.83 504.406ZM2270.33 545.656C2268.43 545.656 2266.89 544.117 2266.89 542.219 2266.89 532.726 2259.2 525.031 2249.7 525.031 2247.8 525.031 2246.27 523.492 2246.27 521.594 2246.27 519.695 2247.8 518.156 2249.7 518.156 2262.99 518.156 2273.77 528.929 2273.77 542.219 2273.77 544.117 2272.23 545.656 2270.33 545.656Z" fill="#8DC4E7"/><path d="M2174.08 449.406C2156.99 449.406 2143.14 463.257 2143.14 480.344 2143.14 497.43 2156.99 511.281 2174.08 511.281 2191.16 511.281 2205.02 497.43 2205.02 480.344 2205.02 463.257 2191.16 449.406 2174.08 449.406ZM2189.55 478.625C2187.65 478.625 2186.11 477.086 2186.11 475.187 2186.11 471.39 2183.03 468.312 2179.23 468.312 2177.34 468.312 2175.8 466.773 2175.8 464.875 2175.8 462.976 2177.34 461.437 2179.23 461.437 2186.83 461.437 2192.98 467.594 2192.98 475.187 2192.98 477.086 2191.45 478.625 2189.55 478.625Z" fill="#8DC4E7"/><path d="M2342.52 580.031C2323.53 580.031 2308.14 595.421 2308.14 614.406 2308.14 633.391 2323.53 648.781 2342.52 648.781 2361.5 648.781 2376.89 633.391 2376.89 614.406 2376.89 595.421 2361.5 580.031 2342.52 580.031ZM2359.7 613.272C2357.49 613.253 2355.7 611.463 2355.68 609.25 2355.68 604.827 2352.1 601.24 2347.67 601.24 2345.45 601.24 2343.65 599.44 2343.65 597.219 2343.65 594.997 2345.45 593.197 2347.67 593.197 2356.53 593.216 2363.71 600.392 2363.73 609.25 2363.71 611.463 2361.92 613.253 2359.7 613.272Z" fill="#8DC4E7"/><path d="M2360.46 425.344C2360.46 439.051 2349.35 450.162 2335.64 450.162 2321.93 450.162 2310.82 439.051 2310.82 425.344 2310.82 411.637 2321.93 400.525 2335.64 400.525 2349.35 400.525 2360.46 411.637 2360.46 425.344Z" fill="#8DC4E7"/><path d="M2187.83 604.094C2187.83 619.281 2175.52 631.594 2160.33 631.594 2145.14 631.594 2132.83 619.281 2132.83 604.094 2132.83 588.906 2145.14 576.594 2160.33 576.594 2175.52 576.594 2187.83 588.906 2187.83 604.094Z" fill="#8DC4E7"/><path d="M2228.12 397.844C2228.12 409.652 2218.54 419.225 2206.73 419.225 2194.93 419.225 2185.35 409.652 2185.35 397.844 2185.35 386.035 2194.93 376.462 2206.73 376.462 2218.54 376.462 2228.12 386.035 2228.12 397.844Z" fill="#8DC4E7"/><path d="M2158.61 415.031C2158.61 420.727 2153.99 425.344 2148.3 425.344 2142.6 425.344 2137.98 420.727 2137.98 415.031 2137.98 409.336 2142.6 404.719 2148.3 404.719 2153.99 404.719 2158.61 409.336 2158.61 415.031Z" fill="#8DC4E7"/><path d="M2364.86 549.094C2364.86 554.789 2360.24 559.406 2354.55 559.406 2348.85 559.406 2344.23 554.789 2344.23 549.094 2344.23 543.398 2348.85 538.781 2354.55 538.781 2360.24 538.781 2364.86 543.398 2364.86 549.094Z" fill="#8DC4E7"/><path d="M2227.36 624.719C2227.36 630.414 2222.74 635.031 2217.05 635.031 2211.35 635.031 2206.73 630.414 2206.73 624.719 2206.73 619.023 2211.35 614.406 2217.05 614.406 2222.74 614.406 2227.36 619.023 2227.36 624.719Z" fill="#8DC4E7"/></g></g></g></g></svg>